<?xml version="1.0" encoding="utf-8"?>
<!-- Generator: Adobe Illustrator 26.3.1, SVG Export Plug-In . SVG Version: 6.00 Build 0)  -->
<svg version="1.1" id="Layer_1" xmlns="http://www.w3.org/2000/svg" xmlns:xlink="http://www.w3.org/1999/xlink" x="0px" y="0px"
	 viewBox="0 0 500 400" xml:space="preserve">
<style type="text/css">
	.outline{fill:#FFFFFF;}
	.lines{fill:none;stroke:#fff;stroke-width:20;stroke-miterlimit:10;}
</style>
<g class="outline">
	<path d="M409.82,20l64.69,88.95L250,369.37L25.5,108.95L90.18,20H409.82 M420,0H80L0,110l250,290l250-290L420,0L420,0z"/>
</g>
<line class="lines" x1="482" y1="110" x2="16" y2="110"/>
<polyline class="lines" points="85,11 13.25,109 250,384 " />
<polyline class="lines" points="415,11 487,109 250,384" />
<polyline class="lines" points="250,11 250,110 250,384 ">
	<animate
		attributeName="points"
		dur="3s"
		repeatCount="indefinite"
		values="85,11 13.25,109 250,384;85,11 13.25,109 250,384;141.09,11 94,110 250,384"
        calcMode="spline"
        keySplines="0.1 0.8 0.9 0.2;0.4 0.02 0.9 0.1"
		begin="-1.5s"
	/>
</polyline>
<polyline class="lines" points="250,11 250,110 250,384 ">
	<animate
		attributeName="points"
		dur="3s"
		repeatCount="indefinite"
		values="141.09,11 94,110 250,384;250,11 250,110 250,384"
        calcMode="spline"
        keySplines="0.1 0.8 0.9 0.2"
		begin="-1.5s"
	/>
</polyline>
<polyline class="lines" points="361,11 409,110 250,384 ">
	<animate
		attributeName="points"
		dur="3s"
		repeatCount="indefinite"
		values="250,11 250,110 250,384;361,11 409,110 250,384"
        calcMode="spline"
        keySplines="0.1 0.8 0.9 0.2"
		begin="-1.5s"
	/>
</polyline>
<polyline class="lines" points="415,11 487,109 250,384 ">
	<animate
		attributeName="points"
		dur="3s"
		values="361,11 409,110 250,384;415,11 487,109 250,384;415,11 487,109 250,384"
        calcMode="spline"
        keySplines="0.1 0.9 0.6 0.98;0.1 0.8 0.9 0.2"
		repeatCount="indefinite"
		begin="-1.5s"
	/>
</polyline>
</svg>
